<svg width="24" height="24" viewBox="0 0 24 24" fill="none" xmlns="http://www.w3.org/2000/svg">
  <path d="M12 24c6.627 0 12-5.373 12-12S18.627 0 12 0 0 5.373 0 12s5.373 12 12 12z" fill="#000000"/>
  <path d="M18 12.89l-2.4-.287L17.89 10 15 9.279l-.61 2.813-2.813.61L12.3 15l2.4.287L12.11 18 15 18.721l.61-2.813 2.813-.61L17.7 13z" fill="#ffffff"/>
  <path d="M7.2 7.2l2.4.287L7.31 10 10.2 10.721l.61-2.813 2.813-.61L12.9 5l-2.4-.287L12.89 2 10 1.279 9.39 4.092l-2.813.61L7.3 7z" fill="#ffffff"/>
</svg> 