<svg width="24" height="24" viewBox="0 0 24 24" fill="none" xmlns="http://www.w3.org/2000/svg">
  <circle cx="12" cy="12" r="12" fill="#2775CA"/>
  <path d="M12 4.5v1.13c-3.53 0-6.37 2.84-6.37 6.37 0 3.53 2.84 6.37 6.37 6.37v1.13c-4.13 0-7.5-3.37-7.5-7.5s3.37-7.5 7.5-7.5z" fill="white"/>
  <path d="M12.75 5.89v1.03c2.82.27 5.03 2.48 5.29 5.29h1.03c-.27-3.51-3.09-6.32-6.32-6.32zm5.29 6.82c-.27 2.82-2.48 5.03-5.29 5.29v1.03c3.51-.27 6.32-3.09 6.32-6.32h-1.03z" fill="white"/>
  <path d="M13.29 11.04h-2.58c-.16 0-.29.13-.29.29v1.34c0 .16.13.29.29.29h2.58c.16 0 .29-.13.29-.29v-1.34c0-.16-.13-.29-.29-.29z" fill="white"/>
</svg> 